<?xml version="1.0" encoding="UTF-8"?>
<svg width="800px" height="800px" viewBox="0 0 48 48" version="1.1" xmlns="http://www.w3.org/2000/svg" xmlns:xlink="http://www.w3.org/1999/xlink">
    <title>Google Logo</title>
    <defs>
    </defs>
    <g id="Google-Button" stroke="none" stroke-width="1" fill="none" fill-rule="evenodd">
        <g id="Google-Logo" transform="translate(0.000000, 0.000000)">
            <path d="M45.1213,24.2006 C45.1213,22.6741 45.0054,21.1999 44.753,19.7679 L24,19.7679 L24,28.7659 L35.8428,28.7659 C35.3258,31.7048 33.7103,34.2258 31.2311,35.8711 L31.2311,41.7731 L38.5895,41.7731 C42.8483,37.6613 45.1213,31.5251 45.1213,24.2006 L45.1213,24.2006 Z" id="Shape" fill="#4285F4"></path>
            <path d="M24,46 C30.1643,46 35.3792,43.9388 38.5895,41.7731 L31.2311,35.8711 C29.1847,37.2725 26.7193,38.0839 24,38.0839 C17.9921,38.0839 12.8777,34.0571 11.0793,28.6339 L3.45404,28.6339 L3.45404,34.7006 C6.8159,41.6329 14.7959,46 24,46 L24,46 Z" id="Shape" fill="#34A853"></path>
            <path d="M11.0793,28.6339 C10.6339,27.2325 10.3815,25.7422 10.3815,24.1997 C10.3815,22.6573 10.6339,21.167 11.0793,19.7656 L11.0793,13.6989 L3.45404,13.6989 C1.9644,17.2642 1.0989,20.6386 1.0989,24.1997 C1.0989,27.7609 1.9644,31.1353 3.45404,34.7006 L11.0793,28.6339 L11.0793,28.6339 Z" id="Shape" fill="#FBBC05"></path>
            <path d="M24,10.3159 C27.2487,10.3159 30.1372,11.5421 32.3701,13.6849 L38.9151,7.1402 C35.3792,3.82437 30.1643,1.74316 24,1.74316 C14.7959,1.74316 6.8159,6.11026 3.45404,13.0426 L11.0793,19.1093 C12.8777,13.6861 17.9921,10.3159 24,10.3159 L24,10.3159 Z" id="Shape" fill="#EA4335"></path>
        </g>
    </g>
</svg> 